# xmcd CD database file
#
# Track frame offsets:
#	150
#	12673
#	37102
#	59548
#	89683
#	103238
#	121680
#	151128
#
# Disc length: 2308 seconds
#
# Revision: 0
# Processed by: cddbd v1.5.2PL0 Copyright (c) Steve Scherf et al.
# Submitted via: CDex 1.70beta2
#
DISCID=69090208
DTITLE=Funato Hiroshi - Low Fish
DYEAR=2004
DGENRE=Jazz
TTITLE0=マラカイのひとりごと
TTITLE1=東山
TTITLE2=ララのテーマ
TTITLE3=ななしのストリッパー
TTITLE4=Katse
TTITLE5=魚の樹
TTITLE6=AEC
TTITLE7=Low Fish
EXTD=YEAR: 2004
EXTT0=
EXTT1=
EXTT2=
EXTT3=
EXTT4=
EXTT5=
EXTT6=
EXTT7=
PLAYORDER=
